HIERARCHY
ROOT Hips
{
	OFFSET	0	0	0
	CHANNELS 6  Xposition Yposition Zposition Xrotation Yrotation Zrotation
	JOINT Spine
	{
		OFFSET	0	6.81137	1.36784
		CHANNELS 3  Xrotation Yrotation Zrotation
		JOINT Spine1
		{
			OFFSET	0	11.6648	-2.083
			CHANNELS 3  Xrotation Yrotation Zrotation
			JOINT Spine2
			{
				OFFSET	0	8.84235	0.947767
				CHANNELS 3  Xrotation Yrotation Zrotation
				JOINT Spine3
				{
					OFFSET	0	10.5817	3.14534
					CHANNELS 3  Xrotation Yrotation Zrotation
					JOINT Spine4
					{
						OFFSET	0	15.6642	-1.60391
						CHANNELS 3  Xrotation Yrotation Zrotation
						JOINT Neck
						{
							OFFSET	0	7.47798	-5.23875
							CHANNELS 3  Xrotation Yrotation Zrotation
							JOINT Head
							{
								OFFSET	0	8.97775	-2.68707
								CHANNELS 3  Xrotation Yrotation Zrotation
								End Site
								{
									OFFSET	0	18.7262	-0.906107
								}
							}
						}
					}
					JOINT LeftShoulder
					{
						OFFSET	-4.49929	19.0387	-8.97775
						CHANNELS 3  Xrotation Yrotation Zrotation
						JOINT LeftArm
						{
							OFFSET	-9.81417	-2.68707	3.44739
							CHANNELS 3  Xrotation Yrotation Zrotation
							JOINT LeftForeArm
							{
								OFFSET	-33.0157	-1.50689	2.35663
								CHANNELS 3  Xrotation Yrotation Zrotation
								JOINT LeftHand
								{
									OFFSET	-25.9733	-1.7949	1.85395
									CHANNELS 3  Xrotation Yrotation Zrotation
									End Site
									{
										OFFSET	-9.47896	-0.655051	0.676554
									}
								}
							}
						}
					}
					JOINT RightShoulder
					{
						OFFSET	4.49929	19.0387	-8.97775
						CHANNELS 3  Xrotation Yrotation Zrotation
						JOINT RightArm
						{
							OFFSET	9.81417	-2.68707	3.44739
							CHANNELS 3  Xrotation Yrotation Zrotation
							JOINT RightForeArm
							{
								OFFSET	33.0157	-1.50689	2.35663
								CHANNELS 3  Xrotation Yrotation Zrotation
								JOINT RightHand
								{
									OFFSET	25.9733	-1.7949	1.85395
									CHANNELS 3  Xrotation Yrotation Zrotation
									End Site
									{
										OFFSET	9.47896	-0.655051	0.676554
									}
								}
							}
						}
					}
				}
			}
		}
	}
	JOINT LeftUpLeg
	{
		OFFSET	-9.2746	-3.40568	-0.68392
		CHANNELS 3  Xrotation Yrotation Zrotation
		JOINT LeftLeg
		{
			OFFSET	-2.10167	-41.1814	-0.643755
			CHANNELS 3  Xrotation Yrotation Zrotation
			JOINT LeftFoot
			{
				OFFSET	-2.05436	-37.8685	3.25669
				CHANNELS 3  Xrotation Yrotation Zrotation
				JOINT LeftToeBase
				{
					OFFSET	0	-4.68304	-12.4382
					CHANNELS 3  Xrotation Yrotation Zrotation
					End Site
					{
						OFFSET	0	-1.87322	-7.49286
					}
				}
			}
		}
	}
	JOINT RightUpLeg
	{
		OFFSET	9.2746	-3.40568	-0.68392
		CHANNELS 3  Xrotation Yrotation Zrotation
		JOINT RightLeg
		{
			OFFSET	2.10167	-41.1814	-0.643755
			CHANNELS 3  Xrotation Yrotation Zrotation
			JOINT RightFoot
			{
				OFFSET	2.05436	-37.8685	3.25669
				CHANNELS 3  Xrotation Yrotation Zrotation
				JOINT RightToeBase
				{
					OFFSET	0	-4.68304	-12.4382
					CHANNELS 3  Xrotation Yrotation Zrotation
					End Site
					{
						OFFSET	0	-1.87322	-7.49286
					}
				}
			}
		}
	}
}
MOTION
Frames: 13
Frame Time: 0.020409
 -49.9459 87.1736 -277.749 166.807 -65.7467 159.567 0.00059413 -0.0188606 1.80429 177.473 -179.962 -176.993 178.713 -179.887 -176.993 2.02164 -0.0188606 1.80429 170.508 -179.901 -179.407 155.285 179.346 178.747 172.583 178.375 179.918 177.004 177.199 174.361 2.38803 -70.7113 14.7193 172.735 -54.7827 172.266 -0 -31.8984 37.5368 1.59918 -22.8951 -2.21995 8.18163 35.439 -82.7842 16.7649 5.94566 0.00247402 -0 -15.1636 -11.1644 11.1193 -5.33356 12.1469 155.29 174.218 179.935 7.68203 0.0112613 -3.68865 0.493544 0 0 8.15576 8.46164 -0.663417 142.891 -164.971 -179.82 14.8556 0.0433944 -3.1084 0.506222 0 0
 -49.7313 87.1624 -277.993 167.535 -66.1599 160.556 0.00038284 -0.0122781 1.78594 177.428 -179.975 -177.023 178.592 -179.926 -177.023 1.76864 -0.0122781 1.78594 171.014 -179.907 -179.412 156.769 179.353 177.534 173.028 177.942 179.661 176.65 176.105 173.762 175.038 -112.146 -170.755 173.179 -57.0832 172.587 -0 -31.3034 37.668 1.50172 -23.0186 -2.07907 7.95922 35.0583 -82.1589 16.4695 6.01015 -0.194409 -0 -15.7475 -11.1089 11.1544 -5.45556 12.5521 154.425 173.991 179.894 8.15756 -0.00241049 -3.75014 0.504185 0 0 8.55006 8.13923 -0.891039 142.939 -164.351 -179.568 14.7032 0.107093 -3.00115 0.512758 0 0
 -49.1516 87.4477 -278.291 168.559 -66.4902 162.018 180 179.999 -178.278 177.41 179.999 -177.129 178.42 179.996 -177.129 1.30286 0.000630666 1.72236 172.068 -179.921 -179.431 159.786 179.371 176.622 173.935 177.36 179.479 176.603 175.942 173.685 171.044 -113.908 -173.377 173.724 -59.0447 172.636 -0 -30.7414 37.6841 1.48132 -22.9957 -2.05178 7.59385 34.7027 -81.2835 16.2146 6.04793 -0.213891 -0 -16.2572 -11.1804 11.2171 -5.85578 12.7285 154.022 173.9 179.747 9.93312 0.0323659 -3.80057 0.515632 0 0 8.61329 8.25435 -0.983209 143.7 -164.137 -179.736 13.7549 0.055344 -3.00108 0.51744 0 0
 -48.722 87.81 -278.248 168.769 -68.0714 162.44 180 179.984 -178.297 177.44 179.969 -177.161 178.265 179.907 -177.161 0.77556 0.0155535 1.70348 173.358 -179.934 -179.436 163.41 179.482 175.171 175.028 176.404 179.176 177.138 176.131 174.675 171.348 -115.568 -173.062 174.159 -60.5992 172.836 -0 -30.1576 37.2508 1.48996 -22.6643 -2.07816 7.16209 34.5136 -80.6634 15.9341 6.08069 -0.187729 -0 -16.9655 -11.0295 10.5969 -6.33584 13.1915 153.983 174.174 179.928 9.86937 0.00999975 -3.71862 0.527425 0 0 8.62242 8.07182 -1.05133 144.624 -164.19 179.627 12.881 -0.0413797 -3.12635 0.52106 0 0
 -48.0954 87.6531 -278.595 170.005 -68.5645 163.392 179.999 179.983 -178.288 177.496 179.966 -177.147 178.143 179.898 -177.147 0.281695 0.0169609 1.71202 174.616 -179.946 -179.432 166.912 179.665 174.126 176.089 175.537 178.936 177.681 176.614 175.667 173.545 -117.345 -172.4 174.503 -61.7782 173.05 -0 -29.6785 36.6731 1.47609 -23.0511 -2.04214 6.37952 34.2929 -79.6311 15.7093 6.40008 -0.0972599 -0 -17.7506 -10.9204 11.0815 -6.50732 13.8092 154.609 174.252 179.748 10.9015 0.0861607 -3.67982 0.536441 0 0 7.78519 7.9348 -0.83053 146.562 -163.851 -179.407 19.0364 0.206783 -1.18013 0.660872 0 0
 -47.3282 87.6924 -278.775 171.299 -68.6097 164.96 180 179.997 -178.236 177.503 179.993 -177.06 178.018 179.98 -177.06 179.881 179.997 -178.236 175.562 -179.954 -179.414 169.569 179.864 173.361 176.898 174.853 178.741 178.037 177.248 176.309 175.012 -118.586 -171.887 174.234 -62.103 172.991 -0 -29.5367 36.0558 1.4958 -22.9279 -2.07482 5.29204 34.1393 -78.6588 15.5614 6.79667 -0.31484 -0 -18.3571 -10.8915 10.9274 -6.51757 13.3518 155.529 174.334 -179.915 12.4575 0.0586078 -3.63203 0.547316 0 0 8.17632 7.84666 -0.924651 146.85 -164.052 -179.356 18.7481 0.287135 -1.60028 0.64191 0 0
 -47.7635 87.8237 -277.627 171.281 -70.3869 164.779 179.999 179.98 -178.136 177.462 179.961 -176.893 177.888 179.883 -176.893 179.599 179.98 -178.136 176.144 -179.958 -179.38 171.299 179.438 174.101 177.407 174.302 178.953 178.233 177.827 176.66 176 -119.387 -171.741 173.437 -61.3159 172.401 -0 -29.7124 35.4525 1.45833 -22.9946 -2.01995 5.18026 33.9879 -79.9329 15.6131 7.66042 -0.47812 -0 -18.7696 -10.983 10.9594 -6.59154 12.6505 156.328 174.771 -179.978 13.3884 -0.0666757 -3.56386 0.555769 0 0 8.56863 7.3834 -1.98213 147.634 -163.838 -178.802 17.9924 0.0475017 -1.49042 0.624714 0 0
 -47.8304 88.0884 -277.917 173.024 -68.9752 166.909 0.000955665 -0.0287759 1.90213 177.46 -179.943 -176.83 177.886 -179.828 -176.83 179.564 -179.971 -178.098 176.216 -179.958 -179.367 171.504 179.336 173.864 177.469 173.891 178.923 178.338 178.17 176.848 176.309 -120.181 -171.802 172.423 -59.9215 171.919 -0 -29.9909 35.0216 1.49422 -23.0726 -2.0663 4.50082 33.4228 -79.4092 15.6084 8.94889 -0.584517 -0 -18.9744 -10.8698 11.2724 -6.48461 12.0996 156.427 174.565 -179.585 11.3738 0.137431 -3.22691 0.512766 0 0 9.00344 7.19289 -1.94665 148.673 -163.909 -179.056 16.55 0.308942 -2.00608 0.609548 0 0
 -47.8628 88.2686 -277.82 173.763 -68.5247 167.791 0.000908815 -0.0267228 1.94782 177.466 -179.947 -176.754 177.848 -179.84 -176.754 179.437 -179.973 -178.052 176.522 -179.961 -179.352 172.355 179.401 173.502 177.73 173.555 178.83 178.356 178.134 176.884 176.766 -120.992 -172.375 171.569 -58.3655 171.416 -0 -30.0281 34.5724 1.51693 -22.8234 -2.1088 3.87899 33.1115 -79.2493 15.7766 10.5367 -1.35357 -0 -18.9963 -10.6463 11.1139 -6.51315 11.7592 157.16 174.113 -179.642 11.0593 0.105838 -3.11592 0.515298 0 0 9.90327 6.00145 -1.82872 149.21 -163.862 -179.553 14.7264 0.288079 -2.60268 0.569579 0 0
 -47.8869 88.2899 -277.93 174.7 -68.5246 168.379 0.00163796 -0.0465102 2.01697 177.485 -179.907 -176.638 177.83 -179.721 -176.638 179.325 -179.953 -177.983 176.817 -179.963 -179.329 173.147 179.67 172.947 177.979 173.415 178.665 178.191 178.375 176.561 176.578 -121.373 -173.413 170.559 -56.0841 170.656 -0 -30.5587 34.1905 1.47633 -22.977 -2.04566 3.55634 32.4471 -79.5145 15.8971 12.4448 -1.58445 -0 -18.7423 -10.0358 11.2981 -6.58693 12.0293 157.785 173.737 -179.506 10.7821 0.0431395 -3.23777 0.519507 0 0 10.3065 5.39636 -1.76883 150.506 -163.822 -178.685 15.3488 0.817298 -0.495936 0.612065 0 0
 -48.2953 88.3703 -277.947 175.852 -68.6378 169.281 0.00041528 -0.0116289 2.04522 177.489 -179.977 -176.591 177.813 -179.93 -176.591 179.29 -179.988 -177.955 176.913 -179.963 -179.319 173.41 179.719 172.907 178.06 173.412 178.645 178.179 178.588 176.531 177.317 -121.954 -173.844 169.622 -54.5787 169.846 -0 -30.9373 33.6093 1.37178 -22.4718 -1.92082 3.24709 32.194 -79.5087 16.1189 13.9523 -2.31122 -0 -18.6031 -9.65337 11.7279 -6.82617 12.2588 158.542 173.504 -179.853 10.0675 0.0274025 -3.08443 0.531298 0 0 10.6314 5.58929 -1.64684 150.891 -163.739 -178.672 15.0187 0.504614 -0.812051 0.569904 0 0
 -49.8309 89.6896 -278.081 179.452 -68.3 172.902 179.997 179.903 -177.995 177.663 179.807 -176.659 177.935 179.42 -176.659 179.33 179.903 -177.995 177.164 -179.967 -179.333 173.952 178.809 172.481 178.213 171.287 178.703 178.078 178.798 176.331 178.676 -122.725 -174.163 168.861 -53.5537 169.082 -0 -31.1291 32.9747 1.35297 -21.6976 -1.92466 4.40593 32.2465 -79.9893 16.3538 15.4667 -2.9502 -0 -18.3305 -9.19461 12.7106 -6.84647 11.6641 161.516 173.291 179.646 6.67221 0.204999 -2.81172 0.574474 0 0 8.56877 4.76602 0.328807 154.238 -163.671 179.072 14.1333 0.162828 -0.729999 0.57202 0 0
 -49.5499 89.2356 -278.296 179.18 -67.5868 172.523 179.999 179.972 -177.975 177.625 179.945 -176.626 177.899 179.835 -176.626 179.261 179.972 -177.975 177.242 -179.968 -179.326 174.241 178.118 172.401 178.288 169.917 178.795 178.057 178.796 176.29 178.783 -122.872 -174.727 168.322 -52.3528 169.271 -0 -31.2437 32.61 1.27886 -21.9725 -1.80903 3.09483 32.4411 -79.0414 16.6346 16.0175 -3.24623 -0 -18.2744 -9.21676 12.9079 -6.4663 11.7656 160.665 172.736 -179.994 7.19457 0.139552 -3.08725 0.582444 0 0 8.0092 4.18058 0.961261 153.921 -163.605 178.853 15.6207 0.344511 -1.4167 0.486539 0 0
